<svg width="159" height="38" viewBox="0 0 159 38" fill="none" xmlns="http://www.w3.org/2000/svg">
<path d="M10.7582 3.2204C14.7944 3.2204 17.9192 4.34012 20.1326 6.57956C22.346 8.819 23.4527 11.9959 23.4527 16.1102C23.4527 20.2245 22.346 23.4014 20.1326 25.6408C17.9192 27.8803 14.7944 29 10.7582 29H0.797911V3.2204H10.7582ZM10.4848 24.7034C12.9326 24.7034 14.7684 23.9743 15.9923 22.516C17.2422 21.0318 17.8671 18.8965 17.8671 16.1102C17.8671 13.3239 17.2422 11.2017 15.9923 9.74342C14.7684 8.25914 12.9326 7.517 10.4848 7.517H6.18819V24.7034H10.4848ZM30.9062 6.65768C28.6928 6.65768 27.5861 5.70722 27.5861 3.8063C27.5861 1.87934 28.6928 0.915857 30.9062 0.915857C33.1196 0.915857 34.2263 1.87934 34.2263 3.8063C34.2263 5.70722 33.1196 6.65768 30.9062 6.65768ZM33.5622 9.47V29H28.211V9.47H33.5622ZM50.8356 25.3284C52.9448 25.3284 54.5723 25.7841 55.7181 26.6955C56.8639 27.6069 57.4367 28.8828 57.4367 30.5233C57.4367 32.0337 57.0071 33.2966 56.1478 34.3122C55.2884 35.3277 54.0776 36.0959 52.5152 36.6167C50.9788 37.1375 49.1951 37.3979 47.164 37.3979C43.8048 37.3979 41.344 36.9292 39.7816 35.9917C38.2453 35.0543 37.4771 33.8304 37.4771 32.3201C37.4771 31.4347 37.7505 30.6535 38.2973 29.9765C38.8702 29.3255 39.7816 28.8698 41.0315 28.6094C39.2869 27.9584 38.4145 26.7345 38.4145 24.9378C38.4145 24.0524 38.6749 23.2712 39.1957 22.5942C39.7426 21.9171 40.4847 21.4093 41.4221 21.0708C39.365 19.9251 38.3364 18.1413 38.3364 15.7196C38.3364 13.6624 39.1306 12.048 40.7191 10.8762C42.3075 9.67832 44.4818 9.0794 47.2421 9.0794C48.8045 9.0794 50.2106 9.28772 51.4606 9.70436C51.6428 8.35028 52.1897 7.20452 53.1011 6.26708C54.0125 5.3036 55.2494 4.82186 56.8118 4.82186C56.8639 4.82186 56.929 4.82186 57.0071 4.82186C57.0852 4.82186 57.1633 4.82186 57.2414 4.82186L57.8664 8.64974C57.6581 8.6237 57.4237 8.61068 57.1633 8.61068C56.1738 8.61068 55.3796 8.80598 54.7807 9.19658C54.1817 9.56114 53.8042 10.095 53.6479 10.798C55.3145 11.9698 56.1478 13.6104 56.1478 15.7196C56.1478 17.7507 55.3405 19.3652 53.726 20.563C52.1376 21.7348 49.9763 22.3207 47.2421 22.3207C46.0442 22.3207 44.9506 22.2166 43.961 22.0083C43.3621 22.1645 42.9325 22.3989 42.6721 22.7113C42.4377 22.9978 42.3205 23.3233 42.3205 23.6878C42.3205 24.7815 43.1538 25.3284 44.8204 25.3284H50.8356ZM47.2421 12.4386C46.2005 12.4386 45.3412 12.725 44.6641 13.2979C43.9871 13.8708 43.6486 14.665 43.6486 15.6805C43.6486 16.6961 43.9871 17.5033 44.6641 18.1023C45.3412 18.6751 46.2005 18.9616 47.2421 18.9616C48.2576 18.9616 49.1039 18.6751 49.781 18.1023C50.458 17.5033 50.7965 16.6961 50.7965 15.6805C50.7965 14.665 50.458 13.8708 49.781 13.2979C49.1039 12.725 48.2576 12.4386 47.2421 12.4386ZM47.203 33.7263C49.2081 33.7263 50.6924 33.4789 51.6559 32.9841C52.6454 32.5154 53.1401 31.9425 53.1401 31.2655C53.1401 30.7707 52.9448 30.3671 52.5542 30.0546C52.1636 29.7682 51.4606 29.625 50.445 29.625H43.8439C43.2189 29.625 42.6981 29.7812 42.2815 30.0937C41.8909 30.4322 41.6956 30.8619 41.6956 31.3827C41.6956 32.1118 42.1773 32.6847 43.1408 33.1013C44.1303 33.5179 45.4844 33.7263 47.203 33.7263ZM63.3672 6.65768C61.1538 6.65768 60.0471 5.70722 60.0471 3.8063C60.0471 1.87934 61.1538 0.915857 63.3672 0.915857C65.5806 0.915857 66.6873 1.87934 66.6873 3.8063C66.6873 5.70722 65.5806 6.65768 63.3672 6.65768ZM66.0232 9.47V29H60.672V9.47H66.0232Z" fill="#FF5300"/>
<path d="M80.7577 29.3906C77.685 29.3906 75.2242 28.5052 73.3754 26.7345C71.5265 24.9378 70.6021 22.4379 70.6021 19.235C70.6021 17.0997 71.0187 15.2769 71.852 13.7666C72.6853 12.2563 73.8441 11.0975 75.3284 10.2903C76.8387 9.48302 78.5573 9.0794 80.4843 9.0794C82.4633 9.0794 84.1429 9.48302 85.523 10.2903C86.9031 11.0715 87.9578 12.1521 88.6869 13.5322C89.416 14.8863 89.7806 16.4357 89.7806 18.1804C89.7806 18.7012 89.7675 19.1959 89.7415 19.6647C89.7155 20.1334 89.6764 20.55 89.6243 20.9146H75.8361C76.0445 22.4249 76.5653 23.5576 77.3985 24.3128C78.2579 25.0419 79.3646 25.4065 80.7186 25.4065C81.8644 25.4065 82.7888 25.1851 83.4919 24.7425C84.195 24.2998 84.7418 23.6878 85.1324 22.9066L89.39 24.5472C88.765 26.0835 87.6713 27.2814 86.1089 28.1407C84.5465 28.974 82.7628 29.3906 80.7577 29.3906ZM80.4452 13.0245C77.9193 13.0245 76.396 14.4176 75.8752 17.2039H84.6637C84.5075 15.8498 84.0648 14.8212 83.3357 14.1181C82.6326 13.389 81.6691 13.0245 80.4452 13.0245ZM94.3155 29V9.47H99.1199L99.3152 13.1416C99.9141 11.7876 100.786 10.772 101.932 10.095C103.104 9.41792 104.445 9.0794 105.955 9.0794C107.986 9.0794 109.666 9.67832 110.994 10.8762C112.322 12.048 112.986 13.8187 112.986 16.1883V29H107.635V17.7117C107.635 16.0451 107.296 14.8993 106.619 14.2744C105.968 13.6234 105.135 13.2979 104.12 13.2979C103.39 13.2979 102.674 13.4802 101.971 13.8447C101.294 14.1832 100.734 14.7431 100.292 15.5243C99.875 16.3055 99.6667 17.3471 99.6667 18.6491V29H94.3155ZM127.366 9.0794C129.97 9.0794 131.988 9.63926 133.42 10.759C134.878 11.8787 135.842 13.2328 136.31 14.8212L131.311 16.618C130.79 14.2483 129.501 13.0635 127.444 13.0635C125.96 13.0635 124.801 13.5843 123.968 14.6259C123.16 15.6675 122.757 17.2169 122.757 19.2741C122.757 21.3573 123.173 22.9066 124.007 23.9222C124.866 24.9117 126.025 25.4065 127.483 25.4065C129.748 25.4065 131.102 24.2477 131.545 21.9301L136.389 23.4925C135.946 25.2372 134.956 26.6564 133.42 27.7501C131.91 28.8438 129.944 29.3906 127.522 29.3906C125.491 29.3906 123.707 28.987 122.171 28.1797C120.66 27.3725 119.489 26.2137 118.655 24.7034C117.822 23.1931 117.405 21.3703 117.405 19.235C117.405 17.0997 117.822 15.2769 118.655 13.7666C119.515 12.2563 120.686 11.0975 122.171 10.2903C123.681 9.48302 125.413 9.0794 127.366 9.0794ZM158.409 9.47L150.519 30.2109C149.894 31.9816 149.191 33.3877 148.41 34.4293C147.654 35.497 146.769 36.2521 145.754 36.6948C144.764 37.1635 143.579 37.3979 142.199 37.3979C141.184 37.3979 140.246 37.2807 139.387 37.0464C138.553 36.812 137.824 36.4865 137.199 36.0699L138.332 32.2029C139.244 32.932 140.389 33.2966 141.769 33.2966C142.525 33.2966 143.163 33.1404 143.683 32.8279C144.204 32.5154 144.647 31.8904 145.011 30.953L145.675 29.2734L143.527 24.1956L137.551 9.47H143.488L147.199 21.188L148.214 25.094L149.425 20.9536L152.98 9.47H158.409Z" fill="#373737"/>
</svg>
